C:/Program Files/Krita (x64)/bin/ffmpeg.exe -hide_banner -y -y -r 24 -start_number 0 -start_number_range 1 -i C:/Users/thedo/Documents/Portfolio-website/images/frame%04d.png -i C:/Users/thedo/Documents/Portfolio-website/images/KritaTempPalettegen_%06d.png -lavfi scale=w=400:h=225:flags=bicubic[0:v];[0:v][1:v]paletteuse=dither=sierra2_4a:diff_mode=none -f gif -loop 0 -gifflags +transdiff C:/Users/thedo/Documents/Portfolio-website/images/handextension.gif
=====================================================
Input #0, image2, from 'C:/Users/thedo/Documents/Portfolio-website/images/frame%04d.png':
  Duration: 00:00:04.84, start: 0.000000, bitrate: N/A
  Stream #0:0: Video: png, rgba(pc), 1920x1080 [SAR 23622:23622 DAR 16:9], 25 fps, 25 tbr, 25 tbn, 25 tbc
Input #1, image2, from 'C:/Users/thedo/Documents/Portfolio-website/images/KritaTempPalettegen_%06d.png':
  Duration: 00:00:00.04, start: 0.000000, bitrate: N/A
  Stream #1:0: Video: png, rgba(pc), 16x16 [SAR 1:1 DAR 1:1], 25 fps, 25 tbr, 25 tbn, 25 tbc
Stream mapping:
  Stream #0:0 (png) -> scale
  Stream #1:0 (png) -> paletteuse:palette
  paletteuse -> Stream #0:0 (gif)
Press [q] to stop, [?] for help
[image2 @ 000001d1828f1900] Thread message queue blocking; consider raising the thread_queue_size option (current value: 8)
Output #0, gif, to 'C:/Users/thedo/Documents/Portfolio-website/images/handextension.gif':
  Metadata:
    encoder         : Lavf58.76.100
  Stream #0:0: Video: gif, pal8(pc, gbr/unknown/unknown, progressive), 400x225 [SAR 1:1 DAR 16:9], q=2-31, 200 kb/s, 24 fps, 100 tbn (default)
    Metadata:
      encoder         : Lavc58.134.100 gif
frame=    1 fps=0.0 q=-0.0 size=       0kB time=00:00:00.01 bitrate=   0.0kbits/s speed=0.247x    frame=   76 fps=0.0 q=-0.0 size=      18kB time=00:00:03.14 bitrate=  45.8kbits/s speed= 5.8x    frame=  121 fps=0.0 q=-0.0 Lsize=      32kB time=00:00:05.01 bitrate=  51.7kbits/s speed=5.95x    
video:32kB audio:0kB subtitle:0kB other streams:0kB global headers:0kB muxing overhead: 0.061788%
